<svg width="19" height="19" display="block" enable-background="new 0 0 17 17" style="height:19px;width:19px" version="1.1" viewBox="0 0 21 21" xmlns="http://www.w3.org/2000/svg">
  <path d="m19.3 0.3 1.4 1.4c0.4 0.4 0.4 1 0 1.4l-10.2 10.2c-0.1 0.1-0.2 0.2-0.3 0.2l-2.9 1c-0.3 0.1-0.7-0.1-0.8-0.4v-0.4l1-2.9c0-0.1 0.1-0.2 0.2-0.3l10.2-10.2c0.4-0.4 1-0.4 1.4 0zm-3.2121 8.7h1.9121v9.5c0 1.4-1.1 2.5-2.5 2.5h-13c-1.4 0-2.5-1.1-2.5-2.5v-13c0-1.4 1.1-2.5 2.5-2.5h9.5v2.3125l-5.4958 5.2278-1.1218 3.6133 1.4195 1.3083 3.5466-0.87712z" fill="#3b8ef3"/>
</svg>
